<svg width="627" height="138" viewBox="0 0 627 138" fill="none" xmlns="http://www.w3.org/2000/svg">
<path fill-rule="evenodd" clip-rule="evenodd" d="M143.538 9H183.138V32.1692H143.538V9Z" fill="#40AB5D"/>
<path fill-rule="evenodd" clip-rule="evenodd" d="M143.538 41.1231H183.138V64.2923H143.538V41.1231Z" fill="url(#paint0_linear_1_4)"/>
<path fill-rule="evenodd" clip-rule="evenodd" d="M143.538 73.2462H183.138V96.4154H143.538V73.2462Z" fill="url(#paint1_linear_1_4)"/>
<path fill-rule="evenodd" clip-rule="evenodd" d="M0 105.369H39.6V128.538H0V105.369Z" fill="url(#paint2_linear_1_4)"/>
<path fill-rule="evenodd" clip-rule="evenodd" d="M47.8154 105.369H87.4154V128.538H47.8154V105.369Z" fill="url(#paint3_linear_1_4)"/>
<path fill-rule="evenodd" clip-rule="evenodd" d="M95.7231 105.369H135.323V128.538H95.7231V105.369Z" fill="url(#paint4_linear_1_4)"/>
<path fill-rule="evenodd" clip-rule="evenodd" d="M143.538 105.369H183.138V128.538H143.538V105.369Z" fill="url(#paint5_linear_1_4)"/>
<path fill-rule="evenodd" clip-rule="evenodd" d="M95.7231 73.2462H135.323V96.4154H95.7231V73.2462Z" fill="url(#paint6_linear_1_4)"/>
<path fill-rule="evenodd" clip-rule="evenodd" d="M47.8154 73.2462H87.4154V96.4154H47.8154V73.2462Z" fill="url(#paint7_linear_1_4)"/>
<path fill-rule="evenodd" clip-rule="evenodd" d="M47.8154 41.1231H87.4154V64.2923H47.8154V41.1231Z" fill="url(#paint8_linear_1_4)"/>
<path d="M208.248 25.4H228.344L237.304 89.528H237.56L246.52 25.4H266.616V115H253.304V47.16H253.048L242.808 115H231.032L220.792 47.16H220.536V115H208.248V25.4ZM297.603 116.28C290.776 116.28 285.571 114.36 281.987 110.52C278.403 106.595 276.611 101.005 276.611 93.752V25.4H290.691V94.776C290.691 97.848 291.288 100.067 292.483 101.432C293.763 102.797 295.555 103.48 297.859 103.48C300.163 103.48 301.912 102.797 303.107 101.432C304.387 100.067 305.027 97.848 305.027 94.776V25.4H318.595V93.752C318.595 101.005 316.803 106.595 313.219 110.52C309.635 114.36 304.43 116.28 297.603 116.28ZM346.927 116.28C340.1 116.28 334.938 114.36 331.439 110.52C327.94 106.595 326.191 101.005 326.191 93.752V88.632H339.503V94.776C339.503 100.579 341.935 103.48 346.799 103.48C349.188 103.48 350.98 102.797 352.175 101.432C353.455 99.9813 354.095 97.6773 354.095 94.52C354.095 90.7653 353.242 87.48 351.535 84.664C349.828 81.7627 346.671 78.3067 342.063 74.296C336.26 69.176 332.207 64.568 329.903 60.472C327.599 56.2907 326.447 51.5973 326.447 46.392C326.447 39.3093 328.239 33.848 331.823 30.008C335.407 26.0827 340.612 24.12 347.439 24.12C354.18 24.12 359.258 26.0827 362.671 30.008C366.17 33.848 367.919 39.3947 367.919 46.648V50.36H354.607V45.752C354.607 42.68 354.01 40.4613 352.815 39.096C351.62 37.6453 349.871 36.92 347.567 36.92C342.874 36.92 340.527 39.7787 340.527 45.496C340.527 48.7387 341.38 51.768 343.087 54.584C344.879 57.4 348.079 60.8133 352.687 64.824C358.575 69.944 362.628 74.5947 364.847 78.776C367.066 82.9573 368.175 87.864 368.175 93.496C368.175 100.835 366.34 106.467 362.671 110.392C359.087 114.317 353.839 116.28 346.927 116.28ZM376.248 25.4H390.328V115H376.248V25.4ZM420.713 116.28C413.972 116.28 408.809 114.36 405.225 110.52C401.726 106.68 399.977 101.261 399.977 94.264V46.136C399.977 39.1387 401.726 33.72 405.225 29.88C408.809 26.04 413.972 24.12 420.713 24.12C427.454 24.12 432.574 26.04 436.073 29.88C439.657 33.72 441.449 39.1387 441.449 46.136V55.608H428.137V45.24C428.137 39.6933 425.79 36.92 421.097 36.92C416.404 36.92 414.057 39.6933 414.057 45.24V95.288C414.057 100.749 416.404 103.48 421.097 103.48C425.79 103.48 428.137 100.749 428.137 95.288V81.592H441.449V94.264C441.449 101.261 439.657 106.68 436.073 110.52C432.574 114.36 427.454 116.28 420.713 116.28ZM447.825 63.8H475.985V76.6H447.825V63.8ZM492.753 25.4H511.825L526.417 115H512.337L509.777 97.208V97.464H493.777L491.217 115H478.161L492.753 25.4ZM508.113 85.304L501.841 41.016H501.585L495.441 85.304H508.113ZM533.248 25.4H553.984C560.981 25.4 566.229 27.2773 569.728 31.032C573.227 34.7867 574.976 40.2907 574.976 47.544V56.376C574.976 63.6293 573.227 69.1333 569.728 72.888C566.229 76.6427 560.981 78.52 553.984 78.52H547.328V115H533.248V25.4ZM553.984 65.72C556.288 65.72 557.995 65.08 559.104 63.8C560.299 62.52 560.896 60.344 560.896 57.272V46.648C560.896 43.576 560.299 41.4 559.104 40.12C557.995 38.84 556.288 38.2 553.984 38.2H547.328V65.72H553.984ZM582.623 25.4H603.359C610.356 25.4 615.604 27.2773 619.103 31.032C622.602 34.7867 624.351 40.2907 624.351 47.544V56.376C624.351 63.6293 622.602 69.1333 619.103 72.888C615.604 76.6427 610.356 78.52 603.359 78.52H596.703V115H582.623V25.4ZM603.359 65.72C605.663 65.72 607.37 65.08 608.479 63.8C609.674 62.52 610.271 60.344 610.271 57.272V46.648C610.271 43.576 609.674 41.4 608.479 40.12C607.37 38.84 605.663 38.2 603.359 38.2H596.703V65.72H603.359Z" fill="black"/>
<defs>
<linearGradient id="paint0_linear_1_4" x1="163.533" y1="64.4921" x2="163.159" y2="40.7824" gradientUnits="userSpaceOnUse">
<stop stop-color="#358C7B"/>
<stop offset="0.526" stop-color="#33A65E"/>
</linearGradient>
<linearGradient id="paint1_linear_1_4" x1="142.956" y1="95.2258" x2="183.739" y2="74.4464" gradientUnits="userSpaceOnUse">
<stop stop-color="#222B90"/>
<stop offset="1" stop-color="#367B99"/>
</linearGradient>
<linearGradient id="paint2_linear_1_4" x1="0.00670375" y1="116.962" x2="39.5736" y2="116.962" gradientUnits="userSpaceOnUse">
<stop stop-color="#FF9900"/>
<stop offset="1" stop-color="#FF8000"/>
</linearGradient>
<linearGradient id="paint3_linear_1_4" x1="47.8589" y1="116.962" x2="87.4258" y2="116.962" gradientUnits="userSpaceOnUse">
<stop stop-color="#FF8000"/>
<stop offset="1" stop-color="#CC1953"/>
</linearGradient>
<linearGradient id="paint4_linear_1_4" x1="95.7112" y1="116.962" x2="135.278" y2="116.962" gradientUnits="userSpaceOnUse">
<stop stop-color="#CC1953"/>
<stop offset="1" stop-color="#241284"/>
</linearGradient>
<linearGradient id="paint5_linear_1_4" x1="143.516" y1="116.962" x2="183.083" y2="116.962" gradientUnits="userSpaceOnUse">
<stop stop-color="#222B90"/>
<stop offset="1" stop-color="#3559A6"/>
</linearGradient>
<linearGradient id="paint6_linear_1_4" x1="94.1505" y1="91.078" x2="136.84" y2="78.5941" gradientUnits="userSpaceOnUse">
<stop stop-color="#CC1953"/>
<stop offset="1" stop-color="#241284"/>
</linearGradient>
<linearGradient id="paint7_linear_1_4" x1="46.4504" y1="77.1231" x2="88.8343" y2="92.5491" gradientUnits="userSpaceOnUse">
<stop offset="0.003" stop-color="#FFCC00"/>
<stop offset="1" stop-color="#CE1938"/>
</linearGradient>
<linearGradient id="paint8_linear_1_4" x1="51.1849" y1="37.5224" x2="84.0998" y2="67.8959" gradientUnits="userSpaceOnUse">
<stop offset="0.003" stop-color="#FFD100"/>
<stop offset="1" stop-color="#FD5A22"/>
</linearGradient>
</defs>
</svg>
