<svg xmlns="http://www.w3.org/2000/svg" width="924" height="177" fill="none"><path fill="#fff" d="M216.092 117.138c0 37.016 22.8 59.17 56.677 59.17 16.893 0 31.108-4.708 39.046-17.077v17.077h30.923V0h-32.123v74.954c-7.292-12.37-20.769-17.908-37.661-17.908-33.046-.092-56.862 22.523-56.862 60.092Zm95.539 0c0 21.139-14.4 34.339-31.662 34.339-17.907 0-31.661-13.2-31.661-34.339 0-21.507 13.846-34.984 31.661-34.984 17.262 0 31.662 13.661 31.662 34.984ZM442.708 130.8c-3.693 13.662-13.016 20.492-27.693 20.492-17.077 0-31.107-10.338-31.477-28.615h80.954c1.016-4.523 1.477-9.323 1.477-14.585 0-32.769-22.338-51.23-55.292-51.23-35.169 0-59.354 25.015-59.354 58.984 0 37.846 26.677 60.554 63.6 60.554 27.877 0 46.8-11.631 55.108-34.8l-27.323-10.8Zm-59.17-29.538c3.047-13.2 14.031-20.954 27.231-20.954 14.4 0 24.185 7.753 24.185 19.938l-.185 1.016h-51.231ZM561.877 130.8c-3.692 13.662-13.015 20.492-27.692 20.492-17.077 0-31.108-10.338-31.477-28.615h80.954c1.015-4.523 1.476-9.323 1.476-14.585 0-32.769-22.338-51.23-55.292-51.23-35.169 0-59.354 25.015-59.354 58.984 0 37.846 26.677 60.554 63.6 60.554 27.877 0 46.8-11.631 55.108-34.8l-27.323-10.8Zm-59.169-29.538c3.046-13.2 14.03-20.954 27.23-20.954 14.4 0 24.185 7.753 24.185 19.938l-.185 1.016h-51.23Zm195.784 75.23v-29.077h-67.477l65.631-63.876V56.953H592.8v27.692h63.415L590.769 148.8v27.692h107.723Zm93.877-45.692c-3.692 13.662-13.015 20.492-27.692 20.492-17.077 0-31.108-10.338-31.477-28.615h80.954c1.015-4.523 1.477-9.323 1.477-14.585 0-32.769-22.339-51.23-55.293-51.23-35.169 0-59.353 25.015-59.353 58.984 0 37.846 26.677 60.554 63.6 60.554 27.877 0 46.8-11.631 55.107-34.8l-27.323-10.8ZM733.2 101.262c3.046-13.2 14.031-20.954 27.231-20.954 14.4 0 24.184 7.753 24.184 19.938l-.184 1.016H733.2Z"/><path fill="#40AB5D" fill-rule="evenodd" d="M143.538 56.954h39.6v23.17h-39.6v-23.17Z" clip-rule="evenodd"/><path fill="url(#a)" fill-rule="evenodd" d="M143.538 89.077h39.6v23.169h-39.6v-23.17Z" clip-rule="evenodd"/><path fill="url(#b)" fill-rule="evenodd" d="M143.538 121.2h39.6v23.169h-39.6V121.2Z" clip-rule="evenodd"/><path fill="url(#c)" fill-rule="evenodd" d="M0 153.323h39.6v23.169H0v-23.169Z" clip-rule="evenodd"/><path fill="url(#d)" fill-rule="evenodd" d="M47.815 153.323h39.6v23.169h-39.6v-23.169Z" clip-rule="evenodd"/><path fill="url(#e)" fill-rule="evenodd" d="M95.723 153.323h39.6v23.169h-39.6v-23.169Z" clip-rule="evenodd"/><path fill="url(#f)" fill-rule="evenodd" d="M143.538 153.323h39.6v23.169h-39.6v-23.169Z" clip-rule="evenodd"/><path fill="url(#g)" fill-rule="evenodd" d="M95.723 121.2h39.6v23.169h-39.6V121.2Z" clip-rule="evenodd"/><path fill="url(#h)" fill-rule="evenodd" d="M47.815 121.2h39.6v23.169h-39.6V121.2Z" clip-rule="evenodd"/><path fill="url(#i)" fill-rule="evenodd" d="M47.815 89.077h39.6v23.169h-39.6v-23.17Z" clip-rule="evenodd"/><path fill="#fff" d="M891.785 98.215v3.416h31.292v-9.139c0-20.492-12.831-35.354-34.339-35.354-13.846 0-23.63 6.739-28.707 17.908V57.138h-32.308v119.354h32.308V99.6c0-12.185 6.554-18.923 16.615-18.923 9.231.092 15.139 8.77 15.139 17.538Z"/><defs><linearGradient id="a" x1="163.533" x2="163.159" y1="112.446" y2="88.736" gradientUnits="userSpaceOnUse"><stop stop-color="#358C7B"/><stop offset=".526" stop-color="#33A65E"/></linearGradient><linearGradient id="b" x1="142.956" x2="183.739" y1="143.18" y2="122.4" gradientUnits="userSpaceOnUse"><stop stop-color="#222B90"/><stop offset="1" stop-color="#367B99"/></linearGradient><linearGradient id="c" x1=".007" x2="39.574" y1="164.916" y2="164.916" gradientUnits="userSpaceOnUse"><stop stop-color="#F90"/><stop offset="1" stop-color="#FF8000"/></linearGradient><linearGradient id="d" x1="47.859" x2="87.426" y1="164.916" y2="164.916" gradientUnits="userSpaceOnUse"><stop stop-color="#FF8000"/><stop offset="1" stop-color="#CC1953"/></linearGradient><linearGradient id="e" x1="95.711" x2="135.278" y1="164.916" y2="164.916" gradientUnits="userSpaceOnUse"><stop stop-color="#CC1953"/><stop offset="1" stop-color="#241284"/></linearGradient><linearGradient id="f" x1="143.516" x2="183.083" y1="164.916" y2="164.916" gradientUnits="userSpaceOnUse"><stop stop-color="#222B90"/><stop offset="1" stop-color="#3559A6"/></linearGradient><linearGradient id="g" x1="94.15" x2="136.84" y1="139.032" y2="126.548" gradientUnits="userSpaceOnUse"><stop stop-color="#CC1953"/><stop offset="1" stop-color="#241284"/></linearGradient><linearGradient id="h" x1="46.45" x2="88.834" y1="125.077" y2="140.503" gradientUnits="userSpaceOnUse"><stop offset=".003" stop-color="#FC0"/><stop offset="1" stop-color="#CE1938"/></linearGradient><linearGradient id="i" x1="51.185" x2="84.1" y1="85.476" y2="115.85" gradientUnits="userSpaceOnUse"><stop offset=".003" stop-color="#FFD100"/><stop offset="1" stop-color="#FD5A22"/></linearGradient></defs></svg>